<svg width="100" height="100" viewBox="0 0 100 100" fill="none" xmlns="http://www.w3.org/2000/svg">
<rect width="100" height="100" rx="50" fill="#D9D9D9" fill-opacity="0.5"/>
<path d="M50 47.5C55.4333 47.5 60.2333 48.8 64.1333 50.5C67.7333 52.1 70 55.7 70 59.6V65H30V59.6333C30 55.7 32.2667 52.1 35.8667 50.5333C39.7667 48.8 44.5667 47.5 50 47.5ZM23.3333 48.3333C27 48.3333 30 45.3333 30 41.6667C30 38 27 35 23.3333 35C19.6667 35 16.6667 38 16.6667 41.6667C16.6667 45.3333 19.6667 48.3333 23.3333 48.3333ZM27.1 52C25.8667 51.8 24.6333 51.6667 23.3333 51.6667C20.0333 51.6667 16.9 52.3667 14.0667 53.6C11.6 54.6667 10 57.0667 10 59.7667V65H25V59.6333C25 56.8667 25.7667 54.2667 27.1 52ZM76.6667 48.3333C80.3333 48.3333 83.3333 45.3333 83.3333 41.6667C83.3333 38 80.3333 35 76.6667 35C73 35 70 38 70 41.6667C70 45.3333 73 48.3333 76.6667 48.3333ZM90 59.7667C90 57.0667 88.4 54.6667 85.9333 53.6C83.1 52.3667 79.9667 51.6667 76.6667 51.6667C75.3667 51.6667 74.1333 51.8 72.9 52C74.2333 54.2667 75 56.8667 75 59.6333V65H90V59.7667ZM50 25C55.5333 25 60 29.4667 60 35C60 40.5333 55.5333 45 50 45C44.4667 45 40 40.5333 40 35C40 29.4667 44.4667 25 50 25Z" fill="#EC994B"/>
</svg>
