<svg width="57" height="36" viewBox="0 0 57 36" fill="none" xmlns="http://www.w3.org/2000/svg">
<g clip-path="url(#clip0_19_7)">
<path d="M44.9988 5.52598C45.4835 5.5147 45.838 6.2316 45.7692 6.66215C45.3589 8.209 45.2472 9.98462 44.8059 11.5057C44.6178 12.1537 43.9582 12.8938 43.3591 13.1905C42.7812 13.4765 42.6198 13.2658 42.1433 13.0208C41.9155 12.9035 41.6474 12.8371 41.4772 12.6255C41.8129 12.2748 42.0128 11.789 42.1607 11.3279C42.7112 9.60808 43.007 7.68616 43.5784 5.99362C43.8106 5.30551 44.1019 5.61025 44.6675 5.57969C44.7724 5.57405 44.9 5.52865 44.9991 5.52628L44.9988 5.52598Z" fill="#EC994B"/>
<path d="M43.9753 13.9459C44.1261 13.91 44.2798 13.873 44.4359 13.8679C45.0309 13.8483 45.6635 14.0246 46.2293 13.7433C47.0415 13.3394 47.2237 12.0979 47.351 11.2852C47.3866 11.0582 47.5165 9.67038 47.6353 9.61371L49.7529 13.351C49.9505 13.7578 49.8432 14.3415 49.752 14.7768C49.4757 16.0984 48.5342 16.1963 47.4245 15.7311L43.9756 13.9459H43.9753Z" fill="#EC994B"/>
<path d="M9.67102 6.3788C9.89913 5.85151 10.2971 4.8637 11.0226 5.35538C10.6919 5.63401 10.3715 5.93163 10.0155 6.17791C9.96997 6.20937 9.69895 6.4055 9.67102 6.3788Z" fill="#EC994B"/>
<path d="M44.2104 35.8739C44.2096 34.3223 43.5743 32.9541 42.7645 31.6808C41.5234 29.7289 39.8253 27.9812 38.2438 26.3038C35.2496 23.1279 32.117 20.0796 29.1742 16.8542C27.5266 15.0483 26.5727 13.6762 25.6188 11.3929C25.0692 10.0769 24.5736 8.95408 25.1694 7.5286C25.4678 6.81467 25.8637 6.95087 26.4975 6.88114C26.5189 6.87876 26.7024 6.84049 26.6765 6.79449C26.1039 6.47788 25.528 6.16128 24.9378 5.87909C24.6062 5.72063 23.8381 5.3248 23.5177 5.26515C22.7737 5.12688 22.5676 5.75446 22.4077 6.34317C21.6816 9.01699 22.4868 11.4822 23.8052 13.7878C24.9242 15.7447 26.0989 17.6245 27.5872 19.317C30.7983 22.9695 34.2878 26.4866 37.3902 30.2221C38.3817 31.4158 40.25 33.919 40.0381 35.5344C39.9911 35.8923 39.1783 35.7273 38.9355 35.7246C38.3758 35.7181 37.8158 35.7074 37.2599 35.695C36.7564 35.6837 36.2438 35.7407 35.749 35.6327C35.8334 34.4505 35.2652 33.4529 34.6696 32.4942C33.9383 31.3167 33.0658 30.2212 32.1875 29.1542C30.2213 26.7658 28.1257 24.4846 26.1471 22.1066C23.4389 18.8521 21.0567 15.1557 19.9388 11.0149C19.6257 9.85525 19.3344 8.64875 19.0628 7.47786C18.9132 6.83277 18.7224 6.12389 18.6407 5.47079C18.5199 4.50286 18.6966 3.57024 18.6675 2.59519C18.6442 1.80886 18.362 0.494056 19.3653 0.186349C20.1493 -0.0540012 21.1872 -0.0700245 21.9394 0.271213C22.5156 0.532334 23.3554 0.967635 23.8989 1.29018C24.2373 1.49106 24.3316 1.63082 24.5206 1.9682C24.9192 2.67857 25.339 3.48419 25.7067 4.21296C26.1988 5.18801 26.5689 6.72536 27.6615 7.1654C27.7532 7.2025 28.0689 7.3022 28.148 7.28944C28.1953 7.28172 28.2321 7.16184 28.2144 7.11437C27.7071 5.91618 27.2856 4.67407 26.6336 3.54561C26.7317 3.44354 26.8308 3.45125 26.941 3.53107C27.0313 3.59665 27.3229 3.98299 27.4087 4.09753C28.1242 5.05092 28.6163 6.16454 29.2833 7.13098C29.4461 7.36718 29.6883 7.67845 29.9632 7.77993C30.116 7.83631 30.2677 7.83245 30.4241 7.87844C30.6563 7.94669 30.8941 8.07339 31.1296 8.08615C30.5628 7.34166 29.8706 6.71764 29.2192 6.05386C29.8083 6.09926 30.2636 5.54586 30.7989 5.43755C30.8441 5.42836 31.0531 5.40076 31.0858 5.40076H32.8201C32.8271 5.40076 32.8633 5.42836 32.8501 5.46011C32.8189 5.53399 32.542 5.81232 32.4665 5.87464C31.7616 6.45889 30.9385 6.23219 30.101 6.32092L30.5902 6.58352C31.965 7.28766 33.4894 7.28617 34.5547 6.05386C34.8093 5.7595 34.8598 5.44972 35.3172 5.42925C35.4504 5.42331 35.5565 5.45981 35.6702 5.46129C36.1497 5.46693 36.63 5.45595 37.1094 5.45832C37.1271 5.46129 37.1479 5.57731 37.1468 5.59986C37.138 5.75209 36.5836 6.66542 36.4627 6.85236C36.0665 7.4648 35.476 8.2093 34.9224 8.6802C33.3956 9.97869 31.1531 8.15885 29.5587 8.07043C28.7039 8.02295 28.7447 8.64845 28.7774 9.3339C28.8464 10.7837 29.3141 12.2727 30.3062 13.3394C31.4929 14.6151 32.8718 15.8311 34.1144 17.0619C35.7808 18.7126 37.4425 20.3689 39.0525 22.0769C39.5584 22.6137 40.0287 23.1902 40.5357 23.7249C41.6148 24.8626 42.843 25.8356 43.9177 26.9875C45.7519 28.953 47.9939 32.1004 48.4345 34.8015C48.4689 35.0122 48.5759 35.6365 48.4754 35.7962C48.4672 35.8092 48.3487 35.8754 48.3408 35.8754H44.2107L44.2104 35.8739Z" fill="#EC994B"/>
<path d="M41.5943 5.51888L39.4925 11.987C39.6453 12.1327 39.8361 12.2285 39.954 12.4119C40.1139 12.6608 40.1604 13.0964 40.2712 13.3973C40.6186 14.343 41.1436 14.694 41.9955 15.1284C43.8897 16.0943 45.7172 16.9388 47.5183 18.0993C48.4716 18.7135 49.396 19.4616 50.3567 20.0411C51.0178 20.4399 52.0975 20.8796 52.4267 19.8509C52.5496 19.4669 52.5116 19.1171 52.5616 18.7408C52.566 18.7079 52.6095 18.5494 52.6466 18.5749C52.7912 18.818 52.9508 19.0518 53.0931 19.2969C54.1592 21.1333 55.1666 23.0211 56.1605 24.8947C56.4665 27.1851 55.93 29.6301 56.2078 31.909C56.328 32.8962 56.7175 33.7814 56.8754 34.7662C56.9174 35.0291 57.0047 35.492 57.0003 35.7404C56.9985 35.8362 56.968 35.9591 56.8727 36L52.7327 35.8914C52.6889 35.8478 52.6668 35.7932 52.6542 35.7333C52.5834 35.3991 52.5804 34.979 52.5205 34.622C52.2618 33.0823 51.6324 31.5378 50.9675 30.1364C49.4939 27.0299 47.3825 24.4042 44.7101 22.2692C43.6175 21.02 42.5625 19.6191 41.6001 18.2574C40.5534 16.7765 40.3256 15.9198 38.6935 14.9008C37.7053 14.2836 36.958 13.8133 36.0544 13.0546C35.3857 12.4932 34.3836 11.6977 33.8336 11.0532C33.7607 10.968 33.6355 10.8606 33.6805 10.7496C34.0118 9.93509 35.3792 10.4852 35.9739 10.6431C36.2199 10.7087 36.7161 10.8775 36.9401 10.8873C37.2279 10.8998 37.3387 10.4297 37.4342 10.2057C38.0465 8.76954 38.5856 7.29865 39.1788 5.85418C39.2703 5.62837 39.4516 5.49009 39.6991 5.48624C39.7829 5.48505 39.8546 5.51888 39.9328 5.51947C40.4866 5.52422 41.0413 5.51324 41.5948 5.51858L41.5943 5.51888Z" fill="#EC994B"/>
<path d="M0 27.9958C3.13441 23.846 5.21383 19.031 7.28531 14.2795C7.29413 14.2545 7.28914 14.2308 7.28473 14.2059C7.28091 14.183 7.23387 14.0445 7.20213 14.035C5.30731 17.515 3.49304 21.2048 0.779268 24.124C0.654044 24.2588 0.318644 24.6347 0.191951 24.7193C0.139921 24.754 0.0155795 24.746 0.0335106 24.6777C0.634349 23.5433 1.23754 22.4101 1.83779 21.2757C2.20258 20.5864 2.52005 19.8663 2.92718 19.2004C3.60533 18.0918 4.5351 17.2144 5.28556 16.1509C6.84497 13.9415 8.09398 11.4867 9.80478 9.37782C9.8671 8.99771 9.72159 9.08672 9.53846 9.28672C8.85678 10.0306 8.22655 10.995 7.58338 11.7938C7.28914 12.1591 6.9796 12.5086 6.6736 12.8635C6.49106 13.0754 6.34026 13.4317 6.02632 13.4412C6.19064 12.8172 6.57101 12.2855 6.86467 11.7211C7.32764 10.8306 7.65217 10.0831 8.32003 9.30304C8.66513 8.89979 9.07637 8.58792 9.45174 8.21998C10.0758 7.60842 10.6611 6.94078 11.3172 6.36424C11.51 6.19481 11.8369 5.80491 12.047 6.12063C11.4115 8.31998 10.9844 10.6018 10.818 12.8929C10.4615 17.8061 11.2081 21.8214 12.7866 26.424C13.3948 28.1969 14.1955 29.9761 14.7352 31.7565C15.0213 32.701 15.3167 34.0179 14.9636 34.9701C14.8399 35.3036 14.6244 35.3205 14.3025 35.3413C13.135 35.4166 11.8895 35.281 10.7137 35.3416C10.4309 35.3054 10.7466 34.8621 10.803 34.7164C11.3707 33.2458 10.9694 31.4339 10.6622 29.9337C10.3339 28.3302 9.92648 26.7489 9.62224 25.138C9.44322 24.1902 9.12928 22.8775 9.14133 21.9413C9.16808 19.8378 9.14368 17.7174 9.38149 15.626C9.64399 13.3202 10.084 10.9775 10.7516 8.76032C10.7775 8.63777 10.7516 8.51671 10.7296 8.39713C10.6264 8.50662 10.5547 8.68258 10.4894 8.82204C9.36209 11.235 8.72803 14.5973 8.21097 17.234C7.91761 18.7295 7.78033 20.1951 7.58044 21.7012C7.44229 22.7416 7.21065 23.7665 7.17185 24.8199C7.06309 27.7824 8.19598 31.8268 6.85497 34.5294C6.51193 35.2208 6.41992 35.2362 5.65799 35.2226C5.58862 35.2214 5.52425 35.1914 5.45458 35.1905C4.40135 35.1766 3.34635 35.2036 2.29312 35.192C2.29577 35.1481 2.28636 35.1009 2.29195 35.0573C2.30664 34.9439 2.73111 34.3695 2.82723 34.2027C3.94484 32.266 3.95777 30.4883 4.26672 28.3563C4.42986 27.2299 4.93223 26.0068 5.24734 24.8952C5.95547 22.3953 6.53456 19.8592 7.24622 17.3583C7.7671 15.5287 8.28828 13.6917 8.9241 11.9003L8.83327 11.7798C8.40057 12.6338 8.0246 13.5184 7.6798 14.4133C5.48162 20.1152 3.75936 26.0795 0.436225 31.255L0.000293952 32.1354V27.996L0 27.9958Z" fill="#EC994B"/>
<path d="M27.2494 35.6069C27.5774 34.6167 27.0789 33.5348 26.618 32.6687C25.4613 30.4948 23.7161 28.4023 22.2869 26.3881C20.2786 23.5573 18.35 20.5464 17.2177 17.2325C16.929 16.3877 16.6856 15.5231 16.4404 14.6641C15.7937 12.3985 15.0209 10.0019 14.9022 7.64138C14.8246 6.0969 14.6291 3.57887 15.1832 2.16584C15.5877 1.13442 16.4205 0.719886 17.1815 -0.000274658C17.3652 0.207139 17.0868 0.556982 16.9972 0.792287C16.5898 1.86229 16.5078 2.90945 16.5483 4.05066C16.715 5.25123 16.5789 6.57582 16.852 7.74998C17.262 9.51492 17.8455 11.425 18.3576 13.1736C19.2753 16.3076 20.5646 18.8844 22.3753 21.5805C24.366 24.5442 26.8002 27.1542 28.9367 30.0014C29.78 31.1254 31.7036 33.7191 31.6607 35.117C31.6572 35.2339 31.6037 35.4262 31.5105 35.5012C31.4776 35.5276 31.2927 35.6063 31.2618 35.6063H27.2494V35.6069Z" fill="#EC994B"/>
<path d="M18.8718 35.4585C19.405 34.0888 18.7639 32.628 18.1916 31.3826C17.32 29.4859 16.2753 27.6691 15.4072 25.7661C13.7364 22.1036 12.5856 18.2776 12.1147 14.2534C11.8193 11.7288 12.0562 9.08644 12.4386 6.57611C12.5724 5.69869 13.0059 4.1103 13.7273 3.54473C13.8546 3.44503 13.9084 3.43287 13.8975 3.62455C13.8807 3.92573 13.7073 4.25599 13.6694 4.58417C13.5853 5.31324 13.5562 6.18473 13.5206 6.92655C13.4222 8.98585 13.4357 10.9125 13.8596 12.9368C14.603 16.488 15.6794 20.2152 17.3279 23.4413C18.6648 26.0578 20.3553 28.4047 21.8163 30.928C22.455 32.0313 23.4695 33.7843 23.2784 35.0849C23.2666 35.1647 23.2217 35.2997 23.1652 35.3564C23.1467 35.3748 23.0112 35.4585 23.0018 35.4585H18.8718Z" fill="#EC994B"/>
</g>
<defs>
<clipPath id="clip0_19_7">
<rect width="57" height="36" fill="white"/>
</clipPath>
</defs>
</svg>
